# xmcd
#
# Track frame offsets:
#	150
#	10544
#	25366
#	33160
#	45823
#	68991
#	84553
#	95139
#	104606
#	120012
#	135386
#	145488
#	157036
#	183153
#	196137
#	206680
#	234272
#	248751
#	264605
#	273363
#	285681
#	303730
#
# Disc length: 4285 seconds
#
# Revision: 1
# Processed by: cddbd v1.5.2PL0 Copyright (c) Steve Scherf et al.
# Submitted via: audiograbber 1.83.01
#
DISCID=2b10bb16
DTITLE=Fanni van Dannen - Fischsuppe
DYEAR=2012
DGENRE=Alternative
TTITLE0=Einkaufszentren entstehen
TTITLE1=Fischsuppe
TTITLE2=Mikado
TTITLE3=fang den Pudding
TTITLE4=Wildschweinschädel
TTITLE5=Ergo-Versicherungsgruppe
TTITLE6=Olga, lass das pokern sein
TTITLE7=erleuchtet
TTITLE8=ins Heim
TTITLE9=Oh, Acker
TTITLE10=der Fahrradfahrer
TTITLE11=Unterhosentattoo
TTITLE12=wenn Tiere Berufe hätten
TTITLE13=was ist mit der Liebe
TTITLE14=was Krieg ist
TTITLE15=Unruhe
TTITLE16=etwas Neues fühlen
TTITLE17=in den Zeioten der Zeitarbeit
TTITLE18=Butterbrot
TTITLE19=ein Eimer weisse Farbe
TTITLE20=eckig
TTITLE21=Freunde
EXTD=
EXTT0=
EXTT1=
EXTT2=
EXTT3=
EXTT4=
EXTT5=
EXTT6=
EXTT7=
EXTT8=
EXTT9=
EXTT10=
EXTT11=
EXTT12=
EXTT13=
EXTT14=
EXTT15=
EXTT16=
EXTT17=
EXTT18=
EXTT19=
EXTT20=
EXTT21=
PLAYORDER=
